<?xml version="1.0" encoding="UTF-8"?>
<svg version="1.1" xmlns="http://www.w3.org/2000/svg" width="1024" height="1024">
<path d="M0 0 C1.24546405 2.49092811 0.7767578 3.41080733 0 6 C-0.66 6 -1.32 6 -2 6 C-2.26167969 6.81855469 -2.52335938 7.63710938 -2.79296875 8.48046875 C-3.65318317 10.9887315 -4.55301726 13.41247459 -5.55078125 15.86328125 C-32.33058235 82.65329 -4.93979569 150.71128701 21.59936523 212.82440186 C22.21768201 214.27010509 22.83615061 215.71574341 23.45477295 217.16131592 C40.44258984 256.87316884 52.99935706 298.72133344 36.46484375 341.015625 C26.97316551 364.25682725 10.19531779 382.8925119 -13 393 C-41.44846487 403.91055737 -74.22392874 404.03567485 -102.40527344 391.97021484 C-111.4355955 387.78336055 -119.63625753 382.74107307 -127 376 C-127.680625 375.39929688 -128.36125 374.79859375 -129.0625 374.1796875 C-137.99544783 365.83994324 -144.58567916 355.34114051 -149 344 C-149.29519531 343.26523437 -149.59039062 342.53046875 -149.89453125 341.7734375 C-157.80905935 320.33013477 -154.4721377 297.23693618 -145.77734375 276.68359375 C-141.85761927 268.26604777 -136.94549263 260.12921062 -131 253 C-131.77092751 259.30084984 -132.61576955 265.58908451 -133.5 271.875 C-133.63019531 272.82375 -133.76039063 273.7725 -133.89453125 274.75 C-134.02214844 275.65492188 -134.14976562 276.55984375 -134.28125 277.4921875 C-134.39533203 278.31058105 -134.50941406 279.12897461 -134.62695312 279.97216797 C-135 282 -135 282 -136 284 C-135.34 284.33 -134.68 284.66 -134 285 C-134.33 285.66 -134.66 286.32 -135 287 C-134.49196124 297.70510234 -132.57563195 307.23330021 -128 317 C-127.46246094 318.19496094 -127.46246094 318.19496094 -126.9140625 319.4140625 C-120.13546772 333.0193272 -107.52492491 342.86898422 -93.5625 348.375 C-75.59196194 354.10245219 -56.87824831 355.99996054 -39.5 347.4375 C-37.99582045 346.63276394 -36.49543836 345.82086562 -35 345 C-33.66941196 344.32787077 -32.33695964 343.65936419 -31 343 C-31 342.34 -31 341.68 -31 341 C-30.34 341 -29.68 341 -29 341 C-28.33076058 339.66795615 -27.66491631 338.33420708 -27 337 C-26.525625 336.04867188 -26.05125 335.09734375 -25.5625 334.1171875 C-25.046875 333.04726563 -24.53125 331.97734375 -24 330.875 C-23.484375 329.82054687 -22.96875 328.76609375 -22.4375 327.6796875 C-19.15312901 319.27241175 -18.61229134 310.89440899 -18.5625 301.9375 C-18.51319336 300.45926758 -18.51319336 300.45926758 -18.46289062 298.95117188 C-18.32391543 278.42074473 -25.12348655 258.05667108 -31.25 238.6875 C-31.92095194 236.53013051 -32.5907795 234.37241103 -33.25952148 232.21435547 C-36.02813632 223.30686845 -38.83727178 214.41366333 -41.76953125 205.55859375 C-46.85370254 190.19761754 -50.90108524 174.88831158 -54 159 C-54.25523437 157.74058594 -54.51046875 156.48117187 -54.7734375 155.18359375 C-61.97625503 113.48032413 -54.55568326 68.0156905 -30.17578125 32.984375 C-29.45777344 31.99953125 -28.73976563 31.0146875 -28 30 C-27.60474121 29.45666016 -27.20948242 28.91332031 -26.80224609 28.35351562 C-19.29003671 18.13527967 -10.63408742 7.08939161 0 0 Z " fill="#F4D26A" transform="translate(374,299)"/>
<path d="M0 0 C-1.22608107 3.67824322 -2.05725644 3.83530237 -5.375 5.625 C-16.08361806 11.81591981 -25.0546403 20.53496786 -34 29 C-34.92941406 29.87527344 -35.85882813 30.75054687 -36.81640625 31.65234375 C-67.92708734 61.78943311 -87.05505037 103.22930782 -88.28344727 146.65429688 C-88.70556375 180.7357687 -79.52966305 216.22083905 -63.43359375 246.18359375 C-62 249 -62 249 -62 251 C-67.5030403 249.16565323 -70.51756429 243.45840496 -74 239 C-74.72703125 238.08734375 -75.4540625 237.1746875 -76.203125 236.234375 C-102 203.01393885 -102 203.01393885 -102 191 C-102.66 190.67 -103.32 190.34 -104 190 C-108.01663714 180.26737924 -109.96546936 168.88945498 -112.1875 158.625 C-112.80461365 155.19013529 -112.80461365 155.19013529 -114 153 C-115.81813866 113.50833694 -105.04953156 77.11655328 -79 47 C-78.01887435 45.77239644 -77.03932521 44.54352826 -76.0625 43.3125 C-75.381875 42.549375 -74.70125 41.78625 -74 41 C-73.34 41 -72.68 41 -72 41 C-71.67 40.01 -71.34 39.02 -71 38 C-68.52973553 35.45233821 -65.73184129 33.26145802 -63 31 C-62.24203125 30.35546875 -61.4840625 29.7109375 -60.703125 29.046875 C-45.9354705 16.78875656 -20.13569507 0 0 0 Z " fill="#F5D26A" transform="translate(394,269)"/>
<path d="M0 0 C9.59926475 4.06376196 16.77514445 14.99986572 23 23 C23.63292969 23.79277344 24.26585937 24.58554687 24.91796875 25.40234375 C36.37375676 40.35391862 44.76742811 57.29283931 51 75 C51.41894531 76.16144531 51.83789062 77.32289063 52.26953125 78.51953125 C62.3701695 109.80502876 58.93191002 145.01314441 44.13378906 174.13623047 C39.04715883 183.88990254 33.02424093 192.54434863 26 201 C25.48953125 201.64582031 24.9790625 202.29164063 24.453125 202.95703125 C23.34914392 204.34350161 22.18176561 205.67920314 21 207 C20.34 207 19.68 207 19 207 C18.80019531 207.55171875 18.60039062 208.1034375 18.39453125 208.671875 C16.43770093 211.93874019 13.66797263 213.96900566 10.6875 216.25 C9.7442688 216.97678955 9.7442688 216.97678955 8.78198242 217.71826172 C-5.26030367 228.37637624 -21.13842444 236.77772058 -38 242 C-37.6171875 240.06640625 -37.6171875 240.06640625 -37 238 C-35.125 236.9375 -35.125 236.9375 -33 236 C-31.98420244 235.01605117 -30.98634897 234.01346717 -30 233 C-28.77436261 231.91988907 -27.54069029 230.84885367 -26.30078125 229.78515625 C6.53009819 201.18278012 29.48768698 164.15982786 32.88671875 120.0390625 C34.42791238 78.69255744 20.08033643 39.99527329 1.3984375 3.7890625 C0 1 0 1 0 0 Z " fill="#F5D26A" transform="translate(398,486)"/>
<path d="M0 0 C5.75 -0.125 5.75 -0.125 8 1 C8.83836618 2.75293041 9.58616673 4.54938776 10.29296875 6.359375 C10.75123047 7.52065918 11.20949219 8.68194336 11.68164062 9.87841797 C11.9263208 10.50762146 12.17100098 11.13682495 12.4230957 11.78509521 C13.46462598 14.46235361 14.52192141 17.1332949 15.57815552 19.80477905 C16.14572541 21.24085319 16.71249759 22.67724283 17.27853394 24.11392212 C20.479509 32.23544087 23.73722606 40.33383897 27.01065063 48.4263916 C27.98429378 50.83612761 28.95354147 53.24760007 29.92260742 55.65917969 C30.53148859 57.16611654 31.14060832 58.67295702 31.75 60.1796875 C32.15409843 61.18903854 32.15409843 61.18903854 32.56636047 62.21878052 C36.19822245 72.34746483 36.19822245 72.34746483 44 79 C45.485 79.99 45.485 79.99 47 81 C47 81.99 47 82.98 47 84 C39.22183991 85.05505736 31.7014242 84.95837146 23.875 84.5625 C22.72773437 84.51029297 21.58046875 84.45808594 20.3984375 84.40429688 C17.59859037 84.27597055 14.79922844 84.14108111 12 84 C12 83.01 12 82.02 12 81 C15.465 80.01 15.465 80.01 19 79 C18.90995971 77.54072636 18.80186312 76.08256917 18.6875 74.625 C18.60048828 73.40683594 18.60048828 73.40683594 18.51171875 72.1640625 C17.78050434 67.64281311 16.38471713 63.35899752 15 59 C10.56251365 58.97103178 6.12505153 58.95321212 1.6875 58.9375 C-0.20645508 58.92493164 -0.20645508 58.92493164 -2.13867188 58.91210938 C-3.34716797 58.90888672 -4.55566406 58.90566406 -5.80078125 58.90234375 C-7.47394409 58.89448853 -7.47394409 58.89448853 -9.1809082 58.88647461 C-12.08052062 58.87250746 -12.08052062 58.87250746 -15 60 C-16.29856741 62.57351139 -16.29856741 62.57351139 -17.25 65.6875 C-17.60578125 66.72261719 -17.9615625 67.75773437 -18.328125 68.82421875 C-19.05355628 72.25314684 -18.7923371 74.612251 -18 78 C-15.69 78.66 -13.38 79.32 -11 80 C-11.33 81.65 -11.66 83.3 -12 85 C-15.95092059 85.07409401 -19.90157294 85.12857406 -23.85302734 85.16479492 C-25.85919374 85.18732251 -27.86516526 85.2254357 -29.87109375 85.26367188 C-31.12792969 85.27333984 -32.38476562 85.28300781 -33.6796875 85.29296875 C-34.84226074 85.3086792 -36.00483398 85.32438965 -37.20263672 85.34057617 C-38.1257666 85.22818604 -39.04889648 85.1157959 -40 85 C-40.66 84.01 -41.32 83.02 -42 82 C-41.39671875 81.70867187 -40.7934375 81.41734375 -40.171875 81.1171875 C-39.37265625 80.70726562 -38.5734375 80.29734375 -37.75 79.875 C-36.56664062 79.28332031 -36.56664062 79.28332031 -35.359375 78.6796875 C-28.73021526 73.96025258 -26.44073141 65.30618861 -23.5 58.0625 C-22.9767172 56.78652425 -22.45319366 55.51064721 -21.92944336 54.23486328 C-17.49559196 43.39124057 -13.25552809 32.47191443 -9.09765625 21.51977539 C-6.31096268 14.2197026 -3.33863733 7.06567823 0 0 Z M-1 21 C-2.5686719 25.11093684 -4.13519738 29.22268296 -5.69970703 33.33520508 C-6.23264044 34.7351714 -6.76616785 36.13491174 -7.30029297 37.53442383 C-8.06632935 39.54189394 -8.83025102 41.55015746 -9.59375 43.55859375 C-10.28500977 45.37315063 -10.28500977 45.37315063 -10.99023438 47.22436523 C-12.0569793 49.6643569 -12.0569793 49.6643569 -12 51 C-4.74 51 2.52 51 10 51 C10.33 50.34 10.66 49.68 11 49 C10.19861755 46.67117054 9.33548639 44.45013552 8.375 42.1875 C7.81688303 40.83627809 7.25960787 39.48470821 6.703125 38.1328125 C6.41888672 37.44735352 6.13464844 36.76189453 5.84179688 36.05566406 C4.55346408 32.90956136 3.33933745 29.73792265 2.125 26.5625 C1.71507812 25.49128906 1.30515625 24.42007812 0.8828125 23.31640625 C0.59148437 22.55199219 0.30015625 21.78757812 0 21 C-0.33 21 -0.66 21 -1 21 Z " fill="#0B0A09" transform="translate(508,397)"/>
<path d="M0 0 C12.21 0 24.42 0 37 0 C37.495 1.98 37.495 1.98 38 4 C35.36 4.99 32.72 5.98 30 7 C30.58590012 11.44170056 32.27051906 14.53679035 34.5625 18.359375 C34.9138501 18.9492218 35.2652002 19.5390686 35.62719727 20.14678955 C36.7447047 22.01867035 37.87234567 23.88421839 39 25.75 C39.75844716 27.01915219 40.51626645 28.28867982 41.2734375 29.55859375 C44.24418644 35.08473793 44.24418644 35.08473793 48 40 C49.9179143 36.81324916 51.83410278 33.62546386 53.75 30.4375 C54.28882813 29.54224609 54.82765625 28.64699219 55.3828125 27.72460938 C56.92759393 25.15311346 58.46393138 22.57670611 60 20 C60.63083496 18.9637146 60.63083496 18.9637146 61.27441406 17.90649414 C63.58607858 14.03337921 64.44364834 11.54739553 64 7 C61.36 5.68 58.72 4.36 56 3 C56.66 2.01 57.32 1.02 58 0 C60.88916016 -0.34057617 60.88916016 -0.34057617 64.5390625 -0.29296875 C66.49199219 -0.2784668 66.49199219 -0.2784668 68.484375 -0.26367188 C69.86458923 -0.23860388 71.24479756 -0.21320902 72.625 -0.1875 C74.01300663 -0.17245517 75.40102867 -0.15876641 76.7890625 -0.14648438 C80.19309509 -0.1110257 83.59635622 -0.06160298 87 0 C87.495 1.98 87.495 1.98 88 4 C86.11197917 4.81380208 84.22395833 5.62760417 82.3359375 6.44140625 C76.31272453 10.46023899 72.48079052 17.03655125 68.6875 23.0625 C67.73452226 24.55998956 66.78139485 26.05738388 65.828125 27.5546875 C65.35697266 28.2981543 64.88582031 29.04162109 64.40039062 29.80761719 C63.07199212 31.88729268 61.72156038 33.95015238 60.359375 36.0078125 C59.94985596 36.63034912 59.54033691 37.25288574 59.1184082 37.89428711 C58.00754884 39.58113061 56.8925831 41.26526783 55.77734375 42.94921875 C51.36114027 50.52955923 51.70352353 57.45000127 52 66 C52.02964844 66.92554688 52.05929687 67.85109375 52.08984375 68.8046875 C52.38781484 73.27201515 52.38781484 73.27201515 54.75 76.9375 C57.13719137 78.06478481 59.51646366 79.10316743 62 80 C61.505 81.98 61.505 81.98 61 84 C49.12 84 37.24 84 25 84 C24.67 82.68 24.34 81.36 24 80 C24.62648438 79.81824219 25.25296875 79.63648438 25.8984375 79.44921875 C26.71570313 79.19785156 27.53296875 78.94648438 28.375 78.6875 C29.18710937 78.44386719 29.99921875 78.20023437 30.8359375 77.94921875 C33.33184629 77.08631815 33.33184629 77.08631815 35 74 C37.30949706 60.38566098 35.89802953 48.52525981 28.0078125 37.25 C27.52086914 36.57582031 27.03392578 35.90164063 26.53222656 35.20703125 C23.64356799 31.04618461 21.17729213 26.62196725 18.625 22.25 C13.09519952 11.95650524 13.09519952 11.95650524 3.75 5.6875 C2.85796875 5.36136719 1.9659375 5.03523438 1.046875 4.69921875 C0.37140625 4.46847656 -0.3040625 4.23773438 -1 4 C-0.67 2.68 -0.34 1.36 0 0 Z " fill="#0A0A09" transform="translate(698,398)"/>
<path d="M0 0 C11.88 0 23.76 0 36 0 C36 0.99 36 1.98 36 3 C35.43410156 3.26554687 34.86820313 3.53109375 34.28515625 3.8046875 C33.18494141 4.33449219 33.18494141 4.33449219 32.0625 4.875 C31.33160156 5.22304688 30.60070312 5.57109375 29.84765625 5.9296875 C27.83667541 6.8684977 27.83667541 6.8684977 27 9 C26.90839663 11.06292985 26.8824882 13.12888885 26.88647461 15.19384766 C26.88658791 17.14564438 26.88658791 17.14564438 26.88670349 19.13687134 C26.89181053 20.56260211 26.89702653 21.9883325 26.90234375 23.4140625 C26.90420853 24.86851961 26.90563215 26.32297734 26.90663147 27.7774353 C26.91045195 31.60792776 26.92027824 35.43838237 26.93133545 39.26885986 C26.94155965 43.17663053 26.94613126 47.08440731 26.95117188 50.9921875 C26.96190092 58.6614756 26.97897172 66.3307325 27 74 C33.09761283 77.40368949 40.31943622 76.02726923 47 75 C52.37949768 72.97486933 55.69030655 69.65808708 59 65 C59.98230498 63.9826127 60.97469597 62.97403883 62 62 C63.485 62.495 63.485 62.495 65 63 C64.39603253 70.70058522 62.40715185 76.17675648 60 84 C40.2 84 20.4 84 0 84 C0 82.68 0 81.36 0 80 C1.7578125 79.34895833 3.515625 78.69791667 5.2734375 78.046875 C7.57662702 76.65037095 8.01565641 75.50477443 9 73 C9.30911908 70.12590132 9.30911908 70.12590132 9.2746582 66.93383789 C9.28419022 65.70899185 9.29372223 64.48414581 9.30354309 63.22218323 C9.30217598 61.24241737 9.30217598 61.24241737 9.30078125 59.22265625 C9.30467027 57.85029471 9.30900537 56.47793436 9.31376648 55.10557556 C9.32122059 52.23155818 9.32094335 49.35766366 9.31567383 46.48364258 C9.30988026 42.80716489 9.32681077 39.13119117 9.3500185 35.45479679 C9.36477614 32.62114031 9.36562481 29.78760465 9.36250877 26.95391655 C9.3632694 24.94150957 9.37712596 22.92912129 9.39118958 20.91676331 C9.38184639 19.07476601 9.38184639 19.07476601 9.37231445 17.19555664 C9.37294388 16.11730118 9.3735733 15.03904572 9.3742218 13.92811584 C8.94669117 10.58288256 7.9851439 8.70264805 6 6 C4.00306313 4.78856394 4.00306313 4.78856394 1.8125 4.1875 C0.554375 3.795625 -0.70375 3.40375 -2 3 C-1.34 2.67 -0.68 2.34 0 2 C0 1.34 0 0.68 0 0 Z " fill="#0B0A0A" transform="translate(563,398)"/>
<path d="M0 0 C11.55 0 23.1 0 35 0 C35.495 1.98 35.495 1.98 36 4 C35.36191406 4.21914063 34.72382812 4.43828125 34.06640625 4.6640625 C33.24011719 4.98117187 32.41382813 5.29828125 31.5625 5.625 C30.32693359 6.07746094 30.32693359 6.07746094 29.06640625 6.5390625 C26.71103521 7.85889487 26.71103521 7.85889487 26.37893677 10.73913574 C26.03010739 13.74091688 25.87314605 16.6150072 25.87060547 19.63476562 C25.86745331 20.71608765 25.86430115 21.79740967 25.86105347 22.91149902 C25.8630777 24.06476685 25.86510193 25.21803467 25.8671875 26.40625 C25.86623077 27.60431274 25.86527405 28.80237549 25.86428833 30.03674316 C25.86360906 32.56502332 25.86544568 35.09330524 25.86962891 37.62158203 C25.87498067 41.48604255 25.86967529 45.35038684 25.86328125 49.21484375 C25.86394208 51.67447942 25.86522333 54.13411502 25.8671875 56.59375 C25.86516327 57.74701782 25.86313904 58.90028564 25.86105347 60.08850098 C25.86420563 61.169823 25.86735779 62.25114502 25.87060547 63.36523438 C25.87140106 64.31088257 25.87219666 65.25653076 25.87301636 66.23083496 C26.0099782 69.21759708 26.45430129 72.0626588 27 75 C35.84337585 76.265783 44.09731266 76.45134367 52.25 72.375 C55.89172519 69.2298737 58.95246753 65.71474372 62 62 C63.98 62.495 63.98 62.495 66 63 C64.33333333 69.66666667 62.66666667 76.33333333 61 83 C54.90319663 84.07127569 48.95436718 84.14507879 42.7734375 84.1328125 C41.7075943 84.13376923 40.6417511 84.13472595 39.54360962 84.13571167 C37.29958029 84.13638978 35.05554896 84.13456132 32.81152344 84.13037109 C29.37951255 84.12500705 25.9476319 84.13033408 22.515625 84.13671875 C20.33072888 84.13605811 18.14583284 84.13477724 15.9609375 84.1328125 C14.42486343 84.13584885 14.42486343 84.13584885 12.85775757 84.13894653 C11.89971222 84.13579437 10.94166687 84.13264221 9.95458984 84.12939453 C9.1163266 84.12859894 8.27806335 84.12780334 7.41439819 84.12698364 C4.86222565 83.99275385 2.49076665 83.559384 0 83 C0 82.01 0 81.02 0 80 C0.56589844 79.79246094 1.13179687 79.58492188 1.71484375 79.37109375 C2.44832031 79.06300781 3.18179688 78.75492187 3.9375 78.4375 C4.66839844 78.14746094 5.39929688 77.85742188 6.15234375 77.55859375 C8.45871578 75.61304948 8.48859281 74.19604747 8.83345032 71.28651428 C9.19653581 66.30181456 9.14147826 61.30777206 9.1328125 56.3125 C9.13376923 55.09602783 9.13472595 53.87955566 9.13571167 52.6262207 C9.13639044 50.06103463 9.13455731 47.49584681 9.13037109 44.93066406 C9.12501863 41.01363247 9.13032641 37.09671554 9.13671875 33.1796875 C9.13605791 30.68229141 9.13477664 28.1848954 9.1328125 25.6875 C9.13584885 23.93723511 9.13584885 23.93723511 9.13894653 22.15161133 C9.12318633 16.66162171 8.98199068 11.40631212 8 6 C5.03 5.01 2.06 4.02 -1 3 C-0.67 2.01 -0.34 1.02 0 0 Z " fill="#090909" transform="translate(640,398)"/>
<path d="M0 0 C0.33 1.65 0.66 3.3 1 5 C1.825 4.38125 2.65 3.7625 3.5 3.125 C8.68438191 -0.27459469 13.54807103 -1.51721934 19.6875 -0.375 C24.75314312 1.00257593 27.81028 3.06378902 30.59375 7.59375 C32.32101339 11.77756576 32.51608546 15.27163628 32.625 19.75 C32.66020752 20.57185791 32.69541504 21.39371582 32.73168945 22.24047852 C32.91284846 26.52899895 33.01421798 30.81360451 33.06640625 35.10546875 C33.08687012 35.91725586 33.10733398 36.72904297 33.12841797 37.56542969 C33.16698467 39.11383509 33.18142492 40.66308272 33.16845703 42.21191406 C33.17562669 44.61572751 33.17562669 44.61572751 34 48 C36.8901973 50.55599101 36.8901973 50.55599101 40 52 C38.86010742 53.49536133 38.86010742 53.49536133 37 55 C34.36450195 55.2487793 34.36450195 55.2487793 31.23828125 55.07421875 C29.56088867 54.99204102 29.56088867 54.99204102 27.84960938 54.90820312 C26.09874023 54.79895508 26.09874023 54.79895508 24.3125 54.6875 C23.13365234 54.62626953 21.95480469 54.56503906 20.74023438 54.50195312 C17.82577331 54.34856044 14.91287541 54.18069004 12 54 C12.25 52.125 12.25 52.125 13 50 C15.0625 48.75 15.0625 48.75 17 48 C17.04958948 43.53427636 17.085809 39.06870039 17.10986328 34.6027832 C17.11989545 33.08485114 17.13352438 31.56693827 17.15087891 30.04907227 C17.17525035 27.8620936 17.18651095 25.67537136 17.1953125 23.48828125 C17.20578613 22.17384033 17.21625977 20.85939941 17.22705078 19.50512695 C17.01032009 16.15931784 16.52751041 13.95916766 15 11 C12.37737724 8.86304812 10.86482936 9.00237141 7.4375 9.0625 C3.93230289 9.65467063 3.93230289 9.65467063 2.30566406 12.12890625 C0.72893691 15.59605495 0.64223393 18.0727661 0.671875 21.875 C0.67703125 23.18984375 0.6821875 24.5046875 0.6875 25.859375 C0.6978125 26.53935547 0.708125 27.21933594 0.71875 27.91992188 C0.74990495 29.99367352 0.75972748 32.06666239 0.765625 34.140625 C0.78182743 42.13148492 0.78182743 42.13148492 2 50 C2.639375 50.103125 3.27875 50.20625 3.9375 50.3125 C4.618125 50.539375 5.29875 50.76625 6 51 C6.33 51.99 6.66 52.98 7 54 C3.82212459 55.0592918 1.57411057 55.11458939 -1.76171875 55.09765625 C-2.87998047 55.09443359 -3.99824219 55.09121094 -5.15039062 55.08789062 C-6.31763672 55.07951172 -7.48488281 55.07113281 -8.6875 55.0625 C-9.86634766 55.05798828 -11.04519531 55.05347656 -12.25976562 55.04882812 C-15.17322789 55.03703273 -18.08658863 55.0205727 -21 55 C-21 53.68 -21 52.36 -21 51 C-19.02 50.34 -17.04 49.68 -15 49 C-14.67 37.45 -14.34 25.9 -14 14 C-14.66 13.67 -15.32 13.34 -16 13 C-16.12375 12.0409375 -16.12375 12.0409375 -16.25 11.0625 C-16.62125 10.0415625 -16.62125 10.0415625 -17 9 C-19.99615946 7.6954344 -19.99615946 7.6954344 -23 7 C-22.67 6.01 -22.34 5.02 -22 4 C-20.18994141 3.18457031 -20.18994141 3.18457031 -17.8515625 2.578125 C-17.01109375 2.35769531 -16.170625 2.13726563 -15.3046875 1.91015625 C-14.42039062 1.69230469 -13.53609375 1.47445312 -12.625 1.25 C-11.7484375 1.01667969 -10.871875 0.78335938 -9.96875 0.54296875 C-3.40176542 -1.13392181 -3.40176542 -1.13392181 0 0 Z " fill="#0A0A09" transform="translate(739,560)"/>
<path d="M0 0 C5.53552923 4.81350368 6.1713617 9.90271829 7 17 C7.21826068 21.90032621 7.19109652 26.78364688 7.125 31.6875 C7.11597656 32.97333984 7.10695313 34.25917969 7.09765625 35.58398438 C7.0743189 38.72285732 7.04158033 41.86132476 7 45 C9.64 44.67 12.28 44.34 15 44 C14.8125 46.3125 14.8125 46.3125 14 49 C10.17087497 52.24895457 5.90204784 52.99040695 1 53 C-2.375 52.375 -2.375 52.375 -5 51 C-6.1640625 48.4140625 -6.1640625 48.4140625 -7 46 C-7.59425781 46.433125 -8.18851563 46.86625 -8.80078125 47.3125 C-15.27321527 51.66100933 -20.2287 53.22382677 -28 52 C-32.71497336 50.37119102 -35.38692586 48.25834304 -38 44 C-39.56262633 38.37454522 -38.81561769 35.06811185 -36 30 C-29.70979033 21.80366619 -18.56010967 20.1682723 -9 18 C-8.92345464 13.48382401 -8.89771304 9.40914783 -10 5 C-13.58003773 3.80665409 -16.24315896 3.66456776 -20 4 C-22.30987486 6.1448838 -23.08908628 8.2121102 -24.3125 11.125 C-26 14 -26 14 -29 15.4375 C-32 16 -32 16 -35 15 C-36.9719254 11.23541515 -37.13903228 9.50399202 -36 5.375 C-33.54032042 1.22429071 -30.88999639 -1.00801039 -26.29296875 -2.5859375 C-17.85356293 -4.10991879 -7.54069454 -4.26831766 0 0 Z M-20 28 C-22.83755595 30.62836194 -22.83755595 30.62836194 -24 34 C-23.87159346 39.06937503 -23.87159346 39.06937503 -21 43 C-17.42844907 44.03178138 -15.67364768 44.30620349 -12.25 42.75 C-9.78918149 41.02635231 -9.78918149 41.02635231 -8 38 C-7.75729175 34.56692835 -7.75729175 34.56692835 -7.875 30.8125 C-7.89304687 29.54019531 -7.91109375 28.26789062 -7.9296875 26.95703125 C-7.95289063 25.98121094 -7.97609375 25.00539063 -8 24 C-12.24204939 24 -16.29403384 26.07242018 -20 28 Z " fill="#0A0A09" transform="translate(608,563)"/>
<path d="M0 0 C6.16187125 5.45988591 9.35173046 12.36016321 9.9921875 20.546875 C10.02046938 29.42738586 7.72323519 36.19744502 2 43 C-3.60989131 48.32939675 -9.16837846 50.53270588 -16.875 50.375 C-17.58317871 50.36557373 -18.29135742 50.35614746 -19.02099609 50.34643555 C-26.17371406 50.13964769 -32.10826791 48.75921772 -37.546875 43.75390625 C-43.36899983 36.72666418 -45.94464073 29.24662281 -45.4453125 20.171875 C-44.11042704 10.66374349 -40.70896072 3.8755562 -33 -2 C-22.39375017 -8.26336153 -9.93665466 -6.76389826 0 0 Z M-27 6 C-31.76253579 15.75551685 -30.62985459 26.74652199 -28 37 C-26.62896586 40.14245877 -24.89695038 42.28862556 -22.1875 44.4375 C-18.73565084 45.32511836 -16.42544894 44.96152953 -13 44 C-6.45566693 37.60109656 -5.0999916 30.85481142 -5 22 C-5.51855317 14.84725865 -6.11451668 8.47766311 -11 3 C-17.28392223 -1.18928148 -22.74178032 0.03849245 -27 6 Z " fill="#0A0909" transform="translate(705,565)"/>
<path d="M0 0 C3.70602005 0.35857804 3.70602005 0.35857804 8.453125 0.2890625 C8.948125 9.6940625 8.948125 9.6940625 9.453125 19.2890625 C7.803125 19.2890625 6.153125 19.2890625 4.453125 19.2890625 C4.15019531 18.67417969 3.84726562 18.05929687 3.53515625 17.42578125 C0.52036012 11.60954379 -1.61673418 8.59910944 -7.984375 6.4765625 C-11.23064197 6.23903077 -13.54597186 7.10265893 -16.546875 8.2890625 C-17.40662301 10.58200738 -17.40662301 10.58200738 -17.546875 13.2890625 C-14.5226012 17.23376746 -10.77302025 18.57027998 -6.234375 20.1640625 C0.32214565 22.64835684 5.88440205 24.94755892 9.5625 31.1640625 C11.65245663 35.85729844 12.31293666 40.42349462 10.453125 45.2890625 C7.43475365 49.85697208 3.99149173 54.12986946 -1.546875 55.2890625 C-7.73720216 56.4095339 -12.85417092 56.3458664 -18.9296875 54.6640625 C-22.43975013 54.04382116 -22.43975013 54.04382116 -29.546875 55.2890625 C-29.546875 48.3590625 -29.546875 41.4290625 -29.546875 34.2890625 C-25.74858855 35.55515798 -25.55572294 36.70199617 -23.734375 40.1640625 C-21.22469051 44.50798553 -19.4971388 46.74210506 -14.546875 48.2890625 C-10.13779457 49.45881853 -7.61922959 49.38341629 -3.546875 47.2890625 C-2.13110023 46.10481924 -2.13110023 46.10481924 -2.484375 42.7265625 C-2.5153125 41.025 -2.5153125 41.025 -2.546875 39.2890625 C-3.48789062 38.81855469 -4.42890625 38.34804688 -5.3984375 37.86328125 C-12.8984375 34.11328125 -12.8984375 34.11328125 -14.75219727 33.17895508 C-16.42128316 32.35133733 -18.11043543 31.56453149 -19.80078125 30.78125 C-22.48604473 29.32211679 -23.96782268 28.087179 -25.859375 25.7265625 C-26.35050781 25.12714844 -26.84164062 24.52773438 -27.34765625 23.91015625 C-30.05086828 20.25597712 -29.990487 16.68410736 -29.546875 12.2890625 C-27.80729991 7.36026642 -25.05503329 3.93623712 -20.546875 1.2890625 C-13.92301228 -1.51601144 -6.97894629 -0.61747879 0 0 Z " fill="#0C0B0A" transform="translate(553.546875,559.7109375)"/>
<path d="M0 0 C-0.00333092 1.37729279 -0.00333092 1.37729279 -0.00672913 2.78240967 C-0.02676367 11.43425542 -0.04199031 20.08609339 -0.05181217 28.737957 C-0.05703142 33.18599181 -0.06411172 37.63400747 -0.07543945 42.08203125 C-0.08630232 46.37436359 -0.09228407 50.6666775 -0.09487724 54.95902252 C-0.09672535 56.59687846 -0.1003342 58.23473339 -0.10573006 59.87258148 C-0.11298556 62.16605309 -0.11398903 64.45944845 -0.11352539 66.75292969 C-0.11685631 68.71150909 -0.11685631 68.71150909 -0.12025452 70.70965576 C-0.02326979 73.36330357 0.20026986 75.48992233 1 78 C2.65 78.33 4.3 78.66 6 79 C6.33 80.32 6.66 81.64 7 83 C3.75180029 83.9668747 0.81209164 84.12888665 -2.5703125 84.1328125 C-3.63121094 84.13410156 -4.69210937 84.13539063 -5.78515625 84.13671875 C-6.88730469 84.13285156 -7.98945312 84.12898437 -9.125 84.125 C-10.78982422 84.13080078 -10.78982422 84.13080078 -12.48828125 84.13671875 C-13.54660156 84.13542969 -14.60492187 84.13414062 -15.6953125 84.1328125 C-16.66484863 84.13168457 -17.63438477 84.13055664 -18.63330078 84.12939453 C-21 84 -21 84 -23 83 C-22.67 82.01 -22.34 81.02 -22 80 C-20.33333333 79.33333333 -18.66666667 78.66666667 -17 78 C-15.93274381 74.79823143 -15.86678341 72.48897878 -15.85473633 69.12329102 C-15.84835648 67.91516251 -15.84197662 66.707034 -15.83540344 65.46229553 C-15.83429062 64.15602707 -15.8331778 62.84975861 -15.83203125 61.50390625 C-15.82881753 60.15014104 -15.82545337 58.79637618 -15.82194519 57.44261169 C-15.81595884 54.60553177 -15.8141048 51.76848228 -15.81469727 48.93139648 C-15.8147989 45.29862581 -15.80114287 41.66605051 -15.78392506 38.03332615 C-15.77279925 35.23747361 -15.77077823 32.44166823 -15.77130699 29.64579582 C-15.76955516 27.65606617 -15.75871888 25.66635123 -15.74775696 23.676651 C-15.7523719 21.85973 -15.7523719 21.85973 -15.75708008 20.00610352 C-15.75565506 18.94037613 -15.75423004 17.87464874 -15.75276184 16.77662659 C-16.00357444 13.95985695 -16.42606874 12.33270773 -18 10 C-20.53770003 8.71745356 -20.53770003 8.71745356 -23 8 C-23 7.01 -23 6.02 -23 5 C-19.54505894 3.96743263 -16.08559009 2.95095853 -12.625 1.9375 C-11.64015625 1.64294922 -10.6553125 1.34839844 -9.640625 1.04492188 C-8.69960938 0.77099609 -7.75859375 0.49707031 -6.7890625 0.21484375 C-5.91975098 -0.04176025 -5.05043945 -0.29836426 -4.15478516 -0.56274414 C-2 -1 -2 -1 0 0 Z " fill="#090808" transform="translate(650,531)"/>
<path d="M0 0 C1.24546405 2.49092811 0.7767578 3.41080733 0 6 C-0.66 6 -1.32 6 -2 6 C-2.26167969 6.81855469 -2.52335937 7.63710938 -2.79296875 8.48046875 C-3.65318317 10.9887315 -4.55301726 13.41247459 -5.55078125 15.86328125 C-32.33247666 82.65801449 -4.93451194 150.70735362 21.59963989 212.82563782 C22.82816275 215.69869074 24.05772304 218.57129916 25.28735352 221.44387817 C29.58784557 231.50470925 33.66929332 241.57127046 37 252 C37.33386719 252.99515625 37.66773438 253.9903125 38.01171875 255.015625 C39.45312464 259.47680884 40.37500221 263.24997202 40 268 C38.09589856 265.14384784 37.37228685 262.89594944 36.55615234 259.609375 C32.2166548 242.17518646 24.63246136 225.79893921 17.625 209.3125 C5.24208911 180.17610956 -6.6888782 150.89234815 -14 120 C-14.18933105 119.20706543 -14.37866211 118.41413086 -14.57373047 117.59716797 C-15.1429452 115.19205559 -15.69999155 112.78457276 -16.25 110.375 C-16.41346924 109.664646 -16.57693848 108.95429199 -16.74536133 108.22241211 C-24.36342014 73.70752697 -17.84115093 37.87054637 -4 6 C-4.90685547 7.16982422 -4.90685547 7.16982422 -5.83203125 8.36328125 C-8.00822732 11.01000621 -10.31381719 12.89461347 -13 15 C-13.33 15.66 -13.66 16.32 -14 17 C-14.66 17 -15.32 17 -16 17 C-16.25910156 17.57492187 -16.51820313 18.14984375 -16.78515625 18.7421875 C-18.09999328 21.18583961 -19.62621188 23.02375515 -21.4375 25.125 C-40.30326255 48.47608903 -50.19771721 76.51563167 -54 106 C-54.33 106 -54.66 106 -55 106 C-57.69038408 80.47124442 -42.63280503 50.07084926 -28 30 C-27.60474121 29.45666016 -27.20948242 28.91332031 -26.80224609 28.35351562 C-19.29003671 18.13527967 -10.63408742 7.08939161 0 0 Z " fill="#F0C43D" transform="translate(374,299)"/>
<path d="M0 0 C0 4.12306725 -1.64380526 5.14116741 -4.375 8.1875 C-27.06387805 34.48172288 -38.11388785 68.49833042 -36 103 C-34.4971848 121.91042456 -29.71704199 140.11602062 -21 157 C-20.42765625 158.15242187 -19.8553125 159.30484375 -19.265625 160.4921875 C-15.57279064 167.78738373 -11.39322529 174.68628118 -6.875 181.5 C-6.38435059 182.24145264 -5.89370117 182.98290527 -5.38818359 183.74682617 C-2.20863569 188.45440923 1.23059259 192.74962963 5 197 C4.64808594 196.07703125 4.29617188 195.1540625 3.93359375 194.203125 C0.95567106 186.35288779 -1.94218739 178.4752237 -4.75 170.5625 C-5.19001343 169.33998535 -5.19001343 169.33998535 -5.63891602 168.09277344 C-10.74937072 153.5774883 -10.74937072 153.5774883 -9 148 C-8.77449463 148.76328613 -8.54898926 149.52657227 -8.31665039 150.31298828 C-4.39089235 163.50962819 -0.43241198 176.62991928 4.8125 189.375 C5.1727124 190.25172363 5.5329248 191.12844727 5.90405273 192.03173828 C7.50216047 195.81339549 9.18516263 199.43264634 11.26171875 202.9765625 C13 206 13 206 13 208 C7.4969597 206.16565323 4.48243571 200.45840496 1 196 C0.27296875 195.08734375 -0.4540625 194.1746875 -1.203125 193.234375 C-27 160.01393885 -27 160.01393885 -27 148 C-27.66 147.67 -28.32 147.34 -29 147 C-33.01663714 137.26737924 -34.96546936 125.88945498 -37.1875 115.625 C-37.80461365 112.19013529 -37.80461365 112.19013529 -39 110 C-40.79398788 71.03291451 -30.43529581 33.41826693 -4 4 C-2.67815038 2.65528101 -1.34836383 1.31813146 0 0 Z " fill="#EEC33F" transform="translate(319,312)"/>
<path d="M0 0 C2.44793885 2.19609151 3.68202621 4.1328464 4.90234375 7.17578125 C5.23339111 7.99594727 5.56443848 8.81611328 5.90551758 9.66113281 C6.41634888 10.97355957 6.41634888 10.97355957 6.9375 12.3125 C7.46863403 13.6732666 7.46863403 13.6732666 8.01049805 15.06152344 C19.88942425 45.9396168 22.02765463 80.95278569 9 112 C2.91115036 125.51238638 -4.5178593 137.58557433 -14 149 C-14.76570313 149.96873047 -14.76570313 149.96873047 -15.546875 150.95703125 C-16.65085608 152.34350161 -17.81823439 153.67920314 -19 155 C-19.66 155 -20.32 155 -21 155 C-21.20625 155.556875 -21.4125 156.11375 -21.625 156.6875 C-23.55000774 159.92501302 -26.03850902 161.68231141 -29 164 C-29.66 163.67 -30.32 163.34 -31 163 C-30.26849731 162.30777344 -30.26849731 162.30777344 -29.5222168 161.6015625 C-3.05541608 136.36599323 13.58711557 107.3344007 15 70 C15.05285156 68.9996875 15.10570312 67.999375 15.16015625 66.96875 C15.79438078 45.57056584 10.34496617 24.32606509 1.35546875 5.0625 C0 2 0 2 0 0 Z " fill="#EDC23B" transform="translate(438,538)"/>
<path d="M0 0 C1.26959283 3.80877848 0.50045598 4.57088741 -1.1875 8.125 C-10.33545865 29.46171921 -10.49813953 51.8750808 -2.75 73.6875 C6.24718875 95.67471274 23.76261228 109.66838605 44.97607422 119.17041016 C50.16135811 121.29581361 55.55494132 122.70679856 61 124 C61 124.33 61 124.66 61 125 C44.29045948 124.15036235 28.28050866 114.92541805 16 104 C15.31421875 103.39671875 14.6284375 102.7934375 13.921875 102.171875 C5.00421702 93.81595925 -1.58469293 83.34367429 -6 72 C-6.29519531 71.26523437 -6.59039062 70.53046875 -6.89453125 69.7734375 C-15.01575749 47.77011517 -11.20026154 24.71149219 -2.26953125 3.74609375 C-1 1 -1 1 0 0 Z " fill="#EDC23B" transform="translate(231,571)"/>
<path d="M0 0 C1 3 1 3 0.24658203 5.07788086 C-0.16221191 5.86557861 -0.57100586 6.65327637 -0.9921875 7.46484375 C-1.67220825 8.78005005 -1.67220825 8.78005005 -2.3659668 10.12182617 C-2.86394775 11.05099854 -3.36192871 11.9801709 -3.875 12.9375 C-4.37878174 13.88665283 -4.88256348 14.83580566 -5.40161133 15.8137207 C-9.35439679 23.11380895 -13.70432549 29.59457017 -19 36 C-20.39601954 37.77068655 -21.79185848 39.54151549 -23.1875 41.3125 C-30.15922519 49.94415976 -37.4433002 57.57837169 -45.79296875 64.9140625 C-48.15597868 66.99164059 -48.15597868 66.99164059 -50 70 C-38.02487625 65.27682728 -27.38660148 59.61533905 -17 52 C-16.01 52.495 -16.01 52.495 -15 53 C-28.10889453 63.54603201 -43.06223888 70.83164609 -59 76 C-59.99 76.495 -59.99 76.495 -61 77 C-60.75 75.125 -60.75 75.125 -60 73 C-58.125 71.9375 -58.125 71.9375 -56 71 C-54.98420244 70.01605117 -53.98634897 69.01346717 -53 68 C-51.77436261 66.91988907 -50.54069029 65.84885367 -49.30078125 64.78515625 C-27.93789467 46.1737353 -12.83513973 25.06341707 0 0 Z " fill="#F0C640" transform="translate(421,651)"/>
<path d="M0 0 C1.4861489 3.94324843 0.52552284 7.1015631 -0.375 11.125 C-1.53125544 16.45792 -2.40583509 21.69722732 -2.7890625 27.14453125 C-3 29 -3 29 -4 31 C-3.34 31.33 -2.68 31.66 -2 32 C-2.33 32.66 -2.66 33.32 -3 34 C-2.49196124 44.70510234 -0.57563195 54.23330021 4 64 C4.35835937 64.79664063 4.71671875 65.59328125 5.0859375 66.4140625 C11.95733184 80.20558447 24.77381201 90.1995982 39.0625 95.4375 C40.70714803 95.96206417 42.35292319 96.48311248 44 97 C45.67190627 97.65341538 47.34015202 98.31653318 49 99 C44.04494477 100.92696592 40.02175821 98.40517234 35.37890625 96.51171875 C18.53227594 88.97455582 5.96375245 76.09832014 -1 59 C-6.43485977 43.8564279 -6.00332875 27.91026104 -4.20776367 12.08935547 C-3.95052445 9.85239718 -3.95052445 9.85239718 -4 7 C-2.82851724 4.55766765 -1.40263342 2.32311159 0 0 Z " fill="#F0C33A" transform="translate(242,552)"/>
<path d="M0 0 C7.24163454 12.53593878 5.0583109 34.5307551 2 48 C-1.87374475 60.19133253 -8.04672479 69.18906803 -19.40625 75.29296875 C-25.46935619 78.17688127 -25.46935619 78.17688127 -29 77 C-23 74 -17 71 -11 68 C-11 67.34 -11 66.68 -11 66 C-10.34 66 -9.68 66 -9 66 C-8.33076058 64.66795615 -7.66491631 63.33420708 -7 62 C-6.525625 61.04867187 -6.05125 60.09734375 -5.5625 59.1171875 C-4.7890625 57.51230469 -4.7890625 57.51230469 -4 55.875 C-3.484375 54.82054687 -2.96875 53.76609375 -2.4375 52.6796875 C0.97228845 43.95137033 1.29598392 35.47779194 1.1875 26.1875 C1.18105469 25.04490723 1.17460937 23.90231445 1.16796875 22.72509766 C1.09852327 15.11539208 0.85779351 7.56696422 0 0 Z " fill="#F3C73B" transform="translate(354,574)"/>
<path d="M0 0 C9.59189841 4.06064349 16.7887324 14.99637025 23 23 C23.67933594 23.87398438 24.35867188 24.74796875 25.05859375 25.6484375 C28.90458243 30.7614283 32.34340143 36.04009922 35.5625 41.5625 C35.92158447 42.1706958 36.28066895 42.7788916 36.65063477 43.40551758 C37.49977369 44.90141766 38.25874899 46.44780771 39 48 C38.505 48.99 38.505 48.99 38 50 C37.3709375 48.97261719 36.741875 47.94523438 36.09375 46.88671875 C27.31871224 32.63935497 17.9483962 19.8113733 6 8 C6.37253906 8.68707031 6.74507813 9.37414062 7.12890625 10.08203125 C7.83853516 11.43361328 7.83853516 11.43361328 8.5625 12.8125 C9.27599609 14.15248047 9.27599609 14.15248047 10.00390625 15.51953125 C11 18 11 18 10 21 C8.51361733 18.25384196 7.03718828 15.50245309 5.5625 12.75 C5.14162109 11.97269531 4.72074219 11.19539063 4.28710938 10.39453125 C3.88427734 9.64042969 3.48144531 8.88632812 3.06640625 8.109375 C2.69459229 7.41811523 2.32277832 6.72685547 1.93969727 6.01464844 C1.00925892 4.01985051 0.45699179 2.14807202 0 0 Z " fill="#EBC03F" transform="translate(398,486)"/>
<path d="M0 0 C0 3.91721142 -1.12248053 4.47989238 -3.8125 7.25 C-16.95858305 21.48815578 -27.57639233 38.12477768 -34.84472656 56.08764648 C-36.81036488 60.90518244 -36.81036488 60.90518244 -39 62 C-37.02751565 52.77240082 -32.4392825 44.90099682 -27.89208984 36.74243164 C-26.8629828 34.84037638 -26.8629828 34.84037638 -26 32 C-25.34 32 -24.68 32 -24 32 C-23.74089844 31.278125 -23.48179687 30.55625 -23.21484375 29.8125 C-18.57692215 19.07518954 -8.46189528 8.09643136 0 0 Z " fill="#F2C53B" transform="translate(353,302)"/>
<path d="M0 0 C0.66 0.33 1.32 0.66 2 1 C0.99582031 1.54527344 -0.00835937 2.09054687 -1.04296875 2.65234375 C-13.69218409 9.59222195 -25.294424 16.93013568 -35.68823242 27.01489258 C-38.2963416 29.53253751 -40.60811089 31.64161755 -44 33 C-44 32.34 -44 31.68 -44 31 C-43.34 31 -42.68 31 -42 31 C-41.67 30.01 -41.34 29.02 -41 28 C-38.52973553 25.45233821 -35.73184129 23.26145802 -33 21 C-32.24203125 20.35546875 -31.4840625 19.7109375 -30.703125 19.046875 C-21.67691486 11.55453063 -11.07598231 4.11136869 0 0 Z " fill="#F0C43C" transform="translate(364,279)"/>
<path d="M0 0 C1.4861489 3.94324843 0.52552284 7.1015631 -0.375 11.125 C-1.53125544 16.45792 -2.40583509 21.69722732 -2.7890625 27.14453125 C-3 29 -3 29 -4 31 C-3.34 31.33 -2.68 31.66 -2 32 C-2.33 32.66 -2.66 33.32 -3 34 C-3.04022391 36.3329866 -3.04320247 38.66706666 -3 41 C-3.33 41 -3.66 41 -4 41 C-5.8406287 31.47547691 -5.39380787 21.54943095 -4.21875 11.953125 C-3.94434796 9.83066294 -3.94434796 9.83066294 -4 7 C-2.82851724 4.55766765 -1.40263342 2.32311159 0 0 Z " fill="#E9C047" transform="translate(242,552)"/>
<path d="M0 0 C-1.24685306 3.74055919 -2.31343836 4.00892705 -5.6875 5.875 C-9.86563992 8.27278475 -13.41575726 10.79304597 -17 14 C-17.66 13.67 -18.32 13.34 -19 13 C-17.02 11.35 -15.04 9.7 -13 8 C-13.33 7.34 -13.66 6.68 -14 6 C-16.02463255 5.34786708 -16.02463255 5.34786708 -18 5 C-15.37605694 4.16320723 -12.75095616 3.33043058 -10.125 2.5 C-9.00544922 2.14228516 -9.00544922 2.14228516 -7.86328125 1.77734375 C-2.2265625 0 -2.2265625 0 0 0 Z " fill="#E3BF4C" transform="translate(394,269)"/>
<path d="M0 0 C3.96 0 7.92 0 12 0 C11.67 0.66 11.34 1.32 11 2 C10.34 2 9.68 2 9 2 C9.495 2.78375 9.99 3.5675 10.5 4.375 C12 7 12 7 12 9 C11.34 8.731875 10.68 8.46375 10 8.1875 C6.35060933 6.74294953 2.67754567 5.37128822 -1 4 C-0.67 2.68 -0.34 1.36 0 0 Z " fill="#131212" transform="translate(698,398)"/>
<path d="M0 0 C0.66 0 1.32 0 2 0 C3.17154293 2.28929053 4.33738074 4.58118362 5.5 6.875 C5.83386719 7.52597656 6.16773438 8.17695312 6.51171875 8.84765625 C9 13.7734375 9 13.7734375 9 16 C5.51127585 14.83709195 4.90023136 13.86032391 2.8125 10.9375 C2.28269531 10.20402344 1.75289063 9.47054687 1.20703125 8.71484375 C0.80871094 8.14894531 0.41039062 7.58304687 0 7 C0.66 7 1.32 7 2 7 C1.34 4.69 0.68 2.38 0 0 Z " fill="#F1C94A" transform="translate(323,504)"/>
<path d="M0 0 C0.99 0.495 0.99 0.495 2 1 C2 2.32 2 3.64 2 5 C2.66 5 3.32 5 4 5 C4.50567729 7.56149628 5.00470132 10.12399465 5.5 12.6875 C5.64308594 13.40873047 5.78617187 14.12996094 5.93359375 14.87304688 C6.65571887 18.63841359 7.1824976 22.14473813 7 26 C4.6823552 23.6823552 4.44733749 22.46265284 3.7109375 19.31640625 C3.49179687 18.38892578 3.27265625 17.46144531 3.046875 16.50585938 C2.82515625 15.53455078 2.6034375 14.56324219 2.375 13.5625 C2.14554687 12.59505859 1.91609375 11.62761719 1.6796875 10.63085938 C0 3.42719959 0 3.42719959 0 0 Z " fill="#F0C540" transform="translate(423,543)"/>
<path d="M0 0 C0.125 3.375 0.125 3.375 0 7 C-0.66 7.66 -1.32 8.32 -2 9 C-2.33 8.67 -2.66 8.34 -3 8 C-4.32 9.32 -5.64 10.64 -7 12 C-6.49135273 7.62563349 -5.57073772 4.59903281 -3 1 C-1 0 -1 0 0 0 Z " fill="#F4D259" transform="translate(239,561)"/>
<path d="M0 0 C0.33 0 0.66 0 1 0 C1.66 7.92 2.32 15.84 3 24 C2.34 24.33 1.68 24.66 1 25 C-0.6797917 16.39280284 -1.16036815 8.7027611 0 0 Z " fill="#F2C849" transform="translate(356,380)"/>
<path d="M0 0 C3.3 0 6.6 0 10 0 C10 0.33 10 0.66 10 1 C8.35 1 6.7 1 5 1 C5 1.66 5 2.32 5 3 C6.32 3.66 7.64 4.32 9 5 C8.67 5.99 8.34 6.98 8 8 C8 7.34 8 6.68 8 6 C5.03 5.01 2.06 4.02 -1 3 C-0.67 2.01 -0.34 1.02 0 0 Z " fill="#161615" transform="translate(640,398)"/>
<path d="M0 0 C0.33 0.99 0.66 1.98 1 3 C-0.98 3.66 -2.96 4.32 -5 5 C-5 5.66 -5 6.32 -5 7 C-6.98 7.66 -8.96 8.32 -11 9 C-10.75 7.125 -10.75 7.125 -10 5 C-8.125 3.9375 -8.125 3.9375 -6 3 C-5.2265625 2.195625 -5.2265625 2.195625 -4.4375 1.375 C-3 0 -3 0 0 0 Z " fill="#EECC53" transform="translate(371,719)"/>
<path d="M0 0 C1.32 0.33 2.64 0.66 4 1 C3.67 2.65 3.34 4.3 3 6 C2.34 5.34 1.68 4.68 1 4 C0.45730469 4.48210937 -0.08539062 4.96421875 -0.64453125 5.4609375 C-1.71767578 6.40839844 -1.71767578 6.40839844 -2.8125 7.375 C-3.52019531 8.00148438 -4.22789062 8.62796875 -4.95703125 9.2734375 C-7 11 -7 11 -10 13 C-10.99 12.67 -11.98 12.34 -13 12 C-12.154375 11.505 -11.30875 11.01 -10.4375 10.5 C-6.21263046 7.71703104 -3.18378076 3.88082152 0 0 Z " fill="#131213" transform="translate(702,460)"/>
<path d="M0 0 C1.24546405 2.49092811 0.7767578 3.41080733 0 6 C-0.66 6 -1.32 6 -2 6 C-2.28875 6.886875 -2.5775 7.77375 -2.875 8.6875 C-3.83148748 11.50382424 -4.86798946 14.25083156 -6 17 C-6.95465783 14.83032311 -7.14401212 13.43671207 -6.3984375 11.17578125 C-5.64129615 9.4315257 -4.82390802 7.71372869 -4 6 C-4.99 6 -5.98 6 -7 6 C-4.69 4.02 -2.38 2.04 0 0 Z " fill="#EBC44E" transform="translate(374,299)"/>
<path d="M0 0 C0.66 0.33 1.32 0.66 2 1 C-1.49359465 4.59634744 -5.11098131 7.83451967 -9 11 C-9.66 10.67 -10.32 10.34 -11 10 C-9.47005208 8.79557292 -7.94010417 7.59114583 -6.41015625 6.38671875 C-4.72844923 4.94316909 -4.72844923 4.94316909 -4 2 C-2.0625 0.75 -2.0625 0.75 0 0 Z " fill="#EFCA4F" transform="translate(386,272)"/>
<path d="M0 0 C3.63 0 7.26 0 11 0 C11.33 1.32 11.66 2.64 12 4 C10.35 4 8.7 4 7 4 C7.33 3.01 7.66 2.02 8 1 C5.36 1 2.72 1 0 1 C0 0.67 0 0.34 0 0 Z " fill="#282827" transform="translate(774,398)"/>
<path d="M0 0 C0.33 0 0.66 0 1 0 C1.33 1.65 1.66 3.3 2 5 C3.32 4.01 4.64 3.02 6 2 C6.66 2.33 7.32 2.66 8 3 C2.25 8 2.25 8 0 8 C0 5.36 0 2.72 0 0 Z " fill="#171615" transform="translate(738,560)"/>
<path d="M0 0 C-0.33 0.99 -0.66 1.98 -1 3 C-2.65 3 -4.3 3 -6 3 C-6 2.01 -6 1.02 -6 0 C-3.50907189 -1.24546405 -2.58919267 -0.7767578 0 0 Z " fill="#0F0F0E" transform="translate(633,536)"/>
<path d="M0 0 C0.99 0.33 1.98 0.66 3 1 C2.67 1.99 2.34 2.98 2 4 C-0.0625 4.6875 -0.0625 4.6875 -2 5 C-2 3.68 -2 2.36 -2 1 C-1.34 0.67 -0.68 0.34 0 0 Z " fill="#121111" transform="translate(720,610)"/>
<path d="M0 0 C1.98 0 3.96 0 6 0 C5.67 0.99 5.34 1.98 5 3 C3.02 3 1.04 3 -1 3 C-0.67 2.01 -0.34 1.02 0 0 Z " fill="#1C1B18" transform="translate(508,397)"/>
<path d="M0 0 C2.1519437 3.22791555 2.20086443 4.28400809 2 8 C1.01 7.67 0.02 7.34 -1 7 C-0.67 4.69 -0.34 2.38 0 0 Z " fill="#100F0F" transform="translate(770,579)"/>
<path d="M0 0 C0.99 0.495 0.99 0.495 2 1 C1.34 1.66 0.68 2.32 0 3 C0 2.01 0 1.02 0 0 Z " fill="#2C2C2B" transform="translate(740,561)"/>
<path d="M0 0 C3 1 3 1 3 1 Z " fill="#DCC068" transform="translate(364,727)"/>
<path d="M0 0 C0.99 0.495 0.99 0.495 2 1 C1.01 1.495 1.01 1.495 0 2 C0 1.34 0 0.68 0 0 Z " fill="#2A2928" transform="translate(644,474)"/>
<path d="M0 0 C3 1 3 1 3 1 Z " fill="#29292A" transform="translate(680,472)"/>
<path d="" fill="#41403A" transform="translate(0,0)"/>
<path d="M0 0 C2 1 2 1 2 1 Z " fill="#DBC16D" transform="translate(369,725)"/>
<path d="M0 0 C2 1 2 1 2 1 Z " fill="#E6C970" transform="translate(276,694)"/>
<path d="" fill="#262623" transform="translate(0,0)"/>
<path d="" fill="#282727" transform="translate(0,0)"/>
<path d="" fill="#313232" transform="translate(0,0)"/>
<path d="" fill="#272726" transform="translate(0,0)"/>
<path d="" fill="#2B2927" transform="translate(0,0)"/>
<path d="" fill="#EECF70" transform="translate(0,0)"/>
<path d="M0 0 C2 1 2 1 2 1 Z " fill="#2C2B28" transform="translate(685,483)"/>
<path d="M0 0 C2 1 2 1 2 1 Z " fill="#2B2C29" transform="translate(641,475)"/>
<path d="M0 0 C2 1 2 1 2 1 Z " fill="#5D563F" transform="translate(470,475)"/>
<path d="M0 0 C2 1 2 1 2 1 Z " fill="#2D2D2B" transform="translate(671,404)"/>
<path d="" fill="#62625E" transform="translate(0,0)"/>
<path d="" fill="#E9CA64" transform="translate(0,0)"/>
<path d="" fill="#DFC26B" transform="translate(0,0)"/>
<path d="" fill="#E5C76C" transform="translate(0,0)"/>
<path d="" fill="#E9CB70" transform="translate(0,0)"/>
<path d="" fill="#EACA6E" transform="translate(0,0)"/>
<path d="" fill="#E9CD6F" transform="translate(0,0)"/>
<path d="" fill="#EACB6F" transform="translate(0,0)"/>
<path d="" fill="#E6C970" transform="translate(0,0)"/>
<path d="" fill="#E5C872" transform="translate(0,0)"/>
<path d="" fill="#F0CE69" transform="translate(0,0)"/>
<path d="" fill="#EECB68" transform="translate(0,0)"/>
<path d="" fill="#E4C76D" transform="translate(0,0)"/>
<path d="" fill="#F2D16F" transform="translate(0,0)"/>
<path d="" fill="#F3D372" transform="translate(0,0)"/>
<path d="" fill="#E2C86F" transform="translate(0,0)"/>
<path d="" fill="#E2C772" transform="translate(0,0)"/>
<path d="" fill="#534735" transform="translate(0,0)"/>
<path d="" fill="#363434" transform="translate(0,0)"/>
<path d="" fill="#2D2B29" transform="translate(0,0)"/>
<path d="" fill="#2C2B28" transform="translate(0,0)"/>
<path d="" fill="#282525" transform="translate(0,0)"/>
<path d="" fill="#272825" transform="translate(0,0)"/>
<path d="" fill="#2A2A25" transform="translate(0,0)"/>
<path d="" fill="#2A2A28" transform="translate(0,0)"/>
<path d="" fill="#5E533A" transform="translate(0,0)"/>
<path d="" fill="#F0D370" transform="translate(0,0)"/>
<path d="" fill="#5A503B" transform="translate(0,0)"/>
<path d="" fill="#242424" transform="translate(0,0)"/>
<path d="" fill="#342E28" transform="translate(0,0)"/>
<path d="" fill="#F2D174" transform="translate(0,0)"/>
<path d="" fill="#262424" transform="translate(0,0)"/>
<path d="" fill="#504832" transform="translate(0,0)"/>
<path d="" fill="#EED171" transform="translate(0,0)"/>
<path d="" fill="#282526" transform="translate(0,0)"/>
<path d="" fill="#F1D26E" transform="translate(0,0)"/>
<path d="" fill="#282626" transform="translate(0,0)"/>
<path d="" fill="#272A28" transform="translate(0,0)"/>
<path d="" fill="#564F37" transform="translate(0,0)"/>
<path d="" fill="#2B292A" transform="translate(0,0)"/>
<path d="" fill="#2C2B2B" transform="translate(0,0)"/>
<path d="" fill="#575038" transform="translate(0,0)"/>
<path d="" fill="#F1D272" transform="translate(0,0)"/>
<path d="" fill="#282927" transform="translate(0,0)"/>
<path d="" fill="#2C2B2A" transform="translate(0,0)"/>
<path d="" fill="#262526" transform="translate(0,0)"/>
<path d="" fill="#2D2B2C" transform="translate(0,0)"/>
<path d="" fill="#272724" transform="translate(0,0)"/>
<path d="" fill="#EFCF72" transform="translate(0,0)"/>
<path d="" fill="#2B2729" transform="translate(0,0)"/>
<path d="" fill="#494032" transform="translate(0,0)"/>
<path d="" fill="#494234" transform="translate(0,0)"/>
<path d="" fill="#282825" transform="translate(0,0)"/>
<path d="" fill="#292A28" transform="translate(0,0)"/>
<path d="" fill="#2B2826" transform="translate(0,0)"/>
<path d="" fill="#F2D26C" transform="translate(0,0)"/>
<path d="" fill="#F2D271" transform="translate(0,0)"/>
<path d="" fill="#E5C66A" transform="translate(0,0)"/>
<path d="" fill="#EFD170" transform="translate(0,0)"/>
<path d="" fill="#E3C66B" transform="translate(0,0)"/>
<path d="" fill="#F1D26E" transform="translate(0,0)"/>
<path d="" fill="#ECCC6C" transform="translate(0,0)"/>
<path d="" fill="#EACA6D" transform="translate(0,0)"/>
<path d="" fill="#E9CD6E" transform="translate(0,0)"/>
<path d="" fill="#DCBF6A" transform="translate(0,0)"/>
<path d="" fill="#E1C36D" transform="translate(0,0)"/>
<path d="" fill="#2F2E2C" transform="translate(0,0)"/>
<path d="" fill="#2D2B2B" transform="translate(0,0)"/>
<path d="" fill="#796F50" transform="translate(0,0)"/>
<path d="" fill="#292B29" transform="translate(0,0)"/>
<path d="" fill="#E8CC6D" transform="translate(0,0)"/>
<path d="" fill="#37332F" transform="translate(0,0)"/>
<path d="" fill="#312F29" transform="translate(0,0)"/>
<path d="" fill="#F2D26E" transform="translate(0,0)"/>
<path d="" fill="#292A29" transform="translate(0,0)"/>
<path d="" fill="#2A2726" transform="translate(0,0)"/>
<path d="" fill="#292929" transform="translate(0,0)"/>
<path d="" fill="#282727" transform="translate(0,0)"/>
<path d="" fill="#544D3D" transform="translate(0,0)"/>
<path d="" fill="#262626" transform="translate(0,0)"/>
<path d="" fill="#2B292A" transform="translate(0,0)"/>
<path d="" fill="#E8CC6C" transform="translate(0,0)"/>
<path d="" fill="#2C2C2B" transform="translate(0,0)"/>
<path d="" fill="#292923" transform="translate(0,0)"/>
<path d="" fill="#282727" transform="translate(0,0)"/>
<path d="" fill="#292928" transform="translate(0,0)"/>
<path d="" fill="#292528" transform="translate(0,0)"/>
<path d="" fill="#2A2927" transform="translate(0,0)"/>
<path d="" fill="#E6C970" transform="translate(0,0)"/>
<path d="" fill="#282825" transform="translate(0,0)"/>
<path d="" fill="#2D2C29" transform="translate(0,0)"/>
<path d="" fill="#E6C871" transform="translate(0,0)"/>
<path d="" fill="#2A2829" transform="translate(0,0)"/>
<path d="" fill="#F3D06F" transform="translate(0,0)"/>
<path d="" fill="#413D36" transform="translate(0,0)"/>
<path d="" fill="#262828" transform="translate(0,0)"/>
<path d="" fill="#282926" transform="translate(0,0)"/>
<path d="" fill="#282524" transform="translate(0,0)"/>
<path d="" fill="#272826" transform="translate(0,0)"/>
<path d="" fill="#2B2A28" transform="translate(0,0)"/>
<path d="" fill="#272926" transform="translate(0,0)"/>
<path d="" fill="#3C3A36" transform="translate(0,0)"/>
<path d="" fill="#ECCC71" transform="translate(0,0)"/>
<path d="" fill="#2E2B29" transform="translate(0,0)"/>
<path d="" fill="#302E2A" transform="translate(0,0)"/>
<path d="" fill="#2F2E2C" transform="translate(0,0)"/>
<path d="" fill="#2F3033" transform="translate(0,0)"/>
<path d="" fill="#2E2D2B" transform="translate(0,0)"/>
<path d="" fill="#F1D073" transform="translate(0,0)"/>
<path d="" fill="#2D2D2C" transform="translate(0,0)"/>
<path d="" fill="#2F3131" transform="translate(0,0)"/>
<path d="" fill="#31322F" transform="translate(0,0)"/>
<path d="" fill="#453F38" transform="translate(0,0)"/>
<path d="" fill="#313230" transform="translate(0,0)"/>
<path d="" fill="#44423B" transform="translate(0,0)"/>
<path d="" fill="#343534" transform="translate(0,0)"/>
<path d="" fill="#3F4039" transform="translate(0,0)"/>
<path d="" fill="#F0CF6D" transform="translate(0,0)"/>
<path d="" fill="#EED16E" transform="translate(0,0)"/>
<path d="" fill="#EFCE6D" transform="translate(0,0)"/>
<path d="" fill="#EDCF71" transform="translate(0,0)"/>
<path d="" fill="#E8CC71" transform="translate(0,0)"/>
<path d="" fill="#E5C56A" transform="translate(0,0)"/>
<path d="" fill="#E7C96D" transform="translate(0,0)"/>
<path d="" fill="#E2C671" transform="translate(0,0)"/>
<path d="" fill="#E0C36D" transform="translate(0,0)"/>
</svg>
